<?xml version="1.0" encoding="UTF-8"?>
<svg id="Layer_1" xmlns="http://www.w3.org/2000/svg" version="1.1" xmlns:xlink="http://www.w3.org/1999/xlink" viewBox="0 0 5000 5000">
  <!-- Generator: Adobe Illustrator 29.6.1, SVG Export Plug-In . SVG Version: 2.1.1 Build 9)  -->
  <defs>
    <style>
      .st0 {
        fill: #fff;
      }

      .st1 {
        fill: url(#linear-gradient1);
      }

      .st2 {
        fill: #0289e5;
      }

      .st3 {
        fill: url(#linear-gradient);
      }
    </style>
    <linearGradient id="linear-gradient" x1="962.3" y1="2235.5" x2="1262.4" y2="2664.7" gradientUnits="userSpaceOnUse">
      <stop offset="0" stop-color="#45e492"/>
      <stop offset="1" stop-color="#0289e5"/>
    </linearGradient>
    <linearGradient id="linear-gradient1" x1="845.1" y1="2296.5" x2="1088.2" y2="2548.6" xlink:href="#linear-gradient"/>
  </defs>
  <g>
    <path class="st3" d="M1055.4,2980.2l-6.7-2.2c-61-20.3-118-49.9-169.5-88-37.6-27.9-72.1-60.2-102.4-96-30.1-35.7-56.2-74.9-77.3-116.5-21.4-42-37.8-86.4-48.9-132.2-11.3-46.7-17.1-94.8-17.1-143.1v-258.3l10.3-6.1c58.6-34.8,121.3-62.4,186.4-82.1,72.8-22,148.4-34.1,224.6-35.9h.5s.5,0,.5,0c76.2,1.8,151.8,13.9,224.6,35.9,65.1,19.7,127.8,47.3,186.4,82.1l10.3,6.1v258.3c0,48.2-5.7,96.4-17.1,143.1-11.1,45.7-27.5,90.2-48.9,132.2-21.2,41.6-47.2,80.8-77.3,116.5-30.3,35.8-64.7,68.1-102.4,96-51.5,38.1-108.5,67.7-169.5,88l-6.7,2.2ZM675.7,2168.1v234.1c0,178.1,85.5,347.8,228.6,453.8,46,34.1,96.8,60.8,151,79.6,54.2-18.8,105-45.6,151-79.6,143.2-106,228.6-275.7,228.6-453.8v-234.1c-52.7-30.2-108.7-54.4-166.7-72-69-20.9-140.6-32.4-212.9-34.1-72.2,1.7-143.8,13.2-212.9,34.1-58,17.6-114.1,41.7-166.7,72Z"/>
    <g>
      <rect class="st2" x="1186.5" y="2273.6" width="49.2" height="49.2"/>
      <rect class="st2" x="1235.7" y="2224.3" width="49.2" height="49.2"/>
      <path class="st1" d="M1186.5,2372v204.7l-199.7-307.6c-18.2-28-49.2-44.8-82.6-44.8h-78.4v481.9h0c54.4,0,98.5-44.1,98.5-98.5v-253.9l199.7,307.6c18.2,28,49.2,44.8,82.6,44.8h78.4v-383.4h-49.2v49.2h-49.2Z"/>
    </g>
  </g>
  <g>
    <path class="st0" d="M1649,2286.7h64.7l253,333.7v-333.7h64.7v440h-64.7l-253-333.7v333.7h-64.7v-440Z"/>
    <path class="st0" d="M2391.3,2526.3v200.5h-62.1v-45.5c-24.3,34.6-69.8,53.2-110.2,53.2-70.5,0-122.3-41-122.3-105.7s59.6-110.2,132.6-110.2,67.9,7,99.9,17.9v-10.2c0-41.6-19.2-85.8-85.2-85.8s-64.7,12.8-93.5,27.5l-23.1-46.8c47.4-23.7,89-33.3,125.5-33.3,89,0,138.3,56.4,138.3,138.3ZM2329.2,2623v-44.2c-26.9-8.3-57.6-12.8-90.3-12.8s-81.3,25-81.3,60.8,32,57.6,73.7,57.6,87.1-20.5,98-61.5Z"/>
    <path class="st0" d="M2756.4,2516v210.7h-62.1v-199.8c0-49.3-31.4-83.9-76.2-83.9s-85.8,30.1-90.9,69.2v214.6h-63.4v-331.1h63.4v48c19.9-32.7,60.2-55.7,105-55.7,73,0,124.2,53.2,124.2,128.1Z"/>
    <path class="st0" d="M2810.2,2560.8c0-94.1,80.1-172.9,174.8-172.9s173.6,78.8,173.6,172.9-79.4,173.6-173.6,173.6-174.8-79.4-174.8-173.6ZM3095.2,2560.8c0-64-50.6-117.8-110.2-117.8s-111.4,53.8-111.4,117.8,50.6,118.5,111.4,118.5,110.2-53.8,110.2-118.5Z"/>
    <path class="st0" d="M3191.9,2663.3l39.1-48c39.1,37.1,85.2,61.5,144.7,61.5s92.2-32,92.2-67.2-36.5-57.6-110.2-74.3c-89.7-21.1-149.2-48-149.2-127.5s64-129.4,152.4-129.4,118.5,25,160.8,62.1l-37.1,48.7c-37.1-33.9-81.3-53.8-126.2-53.8s-83.9,31.4-83.9,66.6,37.8,55.1,110.2,72.4c87.7,20.5,148.6,50,148.6,128.7s-56.4,130.7-160.1,130.7-134.5-25.6-181.2-70.5Z"/>
    <path class="st0" d="M3573.6,2560.8c0-94.1,80.1-172.9,174.8-172.9s173.6,78.8,173.6,172.9-79.4,173.6-173.6,173.6-174.8-79.4-174.8-173.6ZM3858.6,2560.8c0-64-50.6-117.8-110.2-117.8s-111.4,53.8-111.4,117.8,50.6,118.5,111.4,118.5,110.2-53.8,110.2-118.5Z"/>
    <path class="st0" d="M4064.2,2395.6h78.1v53.8h-78.1v277.3h-62.1v-277.3h-50v-53.8h50v-39.7c0-53.2,35.9-90.3,87.1-90.3s48,9,66,23.7l-23.1,42.3c-7-7-19.9-12.2-33.9-12.2s-33.9,16.7-33.9,39.7v36.5Z"/>
    <path class="st0" d="M4366.5,2710.7c-17.9,14.7-42.3,23.7-66,23.7-51.2,0-87.1-37.1-87.1-90.3v-194.7h-50v-53.8h50v-90.9h62.1v90.9h78.1v53.8h-78.1v190.2c0,23.1,15.4,39.7,33.9,39.7s26.9-5.1,33.9-12.2l23.1,43.6Z"/>
  </g>
</svg>